<svg id="Layer_1" enable-background="new 0 0 512 512" height="512" viewBox="0 0 512 512" width="512" xmlns="http://www.w3.org/2000/svg"><g><path d="m327.551 34.021c-5.21-2.896-11.64-2.412-16.379 1.207-4.74 3.617-6.884 9.716-5.466 15.508 1.757 7.181 4.97 29.976-3.039 40.181-1.841 2.346-5.339 5.462-14.44 5.483-8.299.019-15.093 6.701-15.093 15v176.733c0 8.284 6.716 15 15 15h176.733c8.284 0 14.999-6.716 14.999-15 0-161.615-138.043-246.188-152.315-254.112z" fill="#ffa07a"/><path d="m256 512c-123.44 0-223.866-100.426-223.866-223.867 0-145.654 120.326-249.389 218.481-287.133 4.61-1.774 9.803-1.163 13.877 1.635 4.068 2.794 6.502 7.411 6.508 12.346 0 .89.618 58.689 27.74 85.812 76.925 76.927 181.126 64.754 181.126 187.34 0 123.441-100.426 223.867-223.866 223.867z" fill="#ffec29"/><path d="m298.74 100.793c-27.122-27.122-27.74-84.921-27.74-85.811-.006-4.935-2.439-9.552-6.508-12.346-2.534-1.74-5.502-2.632-8.492-2.633v511.997c123.44 0 223.866-100.426 223.866-223.867 0-122.586-104.2-110.413-181.126-187.34z" fill="#ffcb00"/><path d="m256 160.667c-25.989 0-47.134 21.144-47.134 47.133s21.145 47.133 47.134 47.133 47.134-21.144 47.134-47.133-21.145-47.133-47.134-47.133zm0 64.266c-9.447 0-17.134-7.686-17.134-17.133s7.687-17.133 17.134-17.133 17.134 7.686 17.134 17.133-7.687 17.133-17.134 17.133z" fill="#324b5f"/><path d="m154.53 288.202-21.602-21.594c-5.859-5.856-5.861-15.354-.004-21.213 5.855-5.859 15.354-5.861 21.213-.004l21.602 21.593c5.859 5.856 5.861 15.354.004 21.213-5.857 5.861-15.355 5.86-21.213.005z" fill="#324b5f"/><path d="m336.257 288.198c-5.857-5.859-5.855-15.356.004-21.213l21.602-21.593c5.858-5.857 15.354-5.856 21.213.004 5.857 5.859 5.855 15.356-.004 21.213l-21.602 21.594c-5.861 5.856-15.357 5.853-21.213-.005z" fill="#1e323c"/><path d="m256 160.667v30c9.447 0 17.134 7.686 17.134 17.133s-7.687 17.133-17.134 17.133v30c25.989 0 47.134-21.144 47.134-47.133s-21.145-47.133-47.134-47.133z" fill="#1e323c"/><circle cx="256" cy="368.467" fill="#466482" r="143.533"/><path d="m256 224.933c79.145 0 143.533 64.389 143.533 143.534s-64.388 143.533-143.533 143.533z" fill="#324b5f"/><circle cx="256" cy="368.467" fill="#f5fafa" r="113.533"/><path d="m256 482c62.603 0 113.533-50.931 113.533-113.533s-50.93-113.534-113.533-113.534z" fill="#e1ebf0"/><path d="m245.394 379.073c-5.858-5.858-5.858-15.355 0-21.213l45.437-45.437c5.857-5.858 15.355-5.858 21.213 0s5.858 15.355 0 21.213l-45.437 45.437c-5.859 5.859-15.357 5.857-21.213 0z" fill="#1e323c"/></g></svg>